<svg id="图层_1" data-name="图层 1" xmlns="http://www.w3.org/2000/svg" viewBox="0 0 300 283"><defs><style>.cls-1{fill:#ffffff;}</style></defs><title>登入</title><path class="cls-1" d="M110.46,26.19V38a17.73,17.73,0,0,0,17.77,17.69H234.85a17.73,17.73,0,0,1,17.77,17.68v153.3a17.73,17.73,0,0,1-17.77,17.68H128.23A17.73,17.73,0,0,0,110.46,262v11.79a17.73,17.73,0,0,0,17.77,17.69h154A17.73,17.73,0,0,0,300,273.81V26.19A17.73,17.73,0,0,0,282.23,8.5h-154A17.73,17.73,0,0,0,110.46,26.19Z" transform="translate(0 -8.5)"/><path class="cls-1" d="M223,145.79,86.44,58.12C73,49.52,56.32,60.33,56.32,77.6c0,8.05,3.85,15.47,10.08,19.48l33.11,21.28c4.9,3.15,2.9,11.51-2.75,11.51H20.83A20.78,20.78,0,0,0,0,150.6H0a20.79,20.79,0,0,0,20.83,20.74h79.62c5.68,0,7.65,8.42,2.71,11.53l-36.88,23.2c-6.15,3.86-10,11.13-10,19h0c0,16.74,16.18,27.24,29.19,19L223,156.5A6.55,6.55,0,0,0,223,145.79Z" transform="translate(0 -8.5)"/></svg>