<svg xmlns="http://www.w3.org/2000/svg" width="60" height="60"><defs><linearGradient id="a" x1="83.939%" x2="16.471%" y1="42.667%" y2="98.084%"><stop offset="5%" stop-color="#FFF"/><stop offset="47%" stop-color="#9B8278"/><stop offset="62%" stop-color="#736264"/><stop offset="82%" stop-color="#413A4C"/><stop offset="93%" stop-color="#2D2A42"/></linearGradient><linearGradient id="b" x1="88.57%" x2="21.043%" y1="37.491%" y2="99.911%"><stop offset="15%" stop-color="#F7F7F7"/><stop offset="49%" stop-color="#9B8278"/><stop offset="56%" stop-color="#8A7470"/><stop offset="75%" stop-color="#584C57"/><stop offset="90%" stop-color="#393348"/><stop offset="99%" stop-color="#2D2A42"/></linearGradient><linearGradient id="c" x1="95.135%" x2="1.934%" y1="54.288%" y2="34.446%"><stop offset="17%" stop-color="#F7F7F7"/><stop offset="55%" stop-color="#9B8278"/><stop offset="81%" stop-color="#554A56"/><stop offset="99%" stop-color="#2D2A42"/></linearGradient><linearGradient id="d" x1="85.815%" x2="-5.041%" y1="52.031%" y2="34.867%"><stop offset="9%" stop-color="#F7F7F7"/><stop offset="42%" stop-color="#9B8278"/><stop offset="56%" stop-color="#736264"/><stop offset="76%" stop-color="#413A4C"/><stop offset="86%" stop-color="#2D2A42"/></linearGradient><linearGradient id="e" x1="11.665%" x2="105.569%" y1="46.98%" y2="67.94%"><stop offset="16%" stop-color="#F7F7F7"/><stop offset="17%" stop-color="#F3F2F2"/><stop offset="31%" stop-color="#C4B6B0"/><stop offset="42%" stop-color="#A69088"/><stop offset="47%" stop-color="#9B8278"/><stop offset="68%" stop-color="#63555C"/><stop offset="87%" stop-color="#2D2A42"/></linearGradient><linearGradient id="f" x1="57.855%" x2="26.436%" y1="107.98%" y2="25.818%"><stop offset="12%" stop-color="#F7F7F7"/><stop offset="51%" stop-color="#9B8278"/><stop offset="99%" stop-color="#2D2A42"/></linearGradient><linearGradient id="g" x1="54.982%" x2="30.012%" y1="103.717%" y2="22.57%"><stop offset="16%" stop-color="#F7F7F7"/><stop offset="51%" stop-color="#9B8278"/><stop offset="65%" stop-color="#736264"/><stop offset="86%" stop-color="#413A4C"/><stop offset="96%" stop-color="#2D2A42"/></linearGradient><linearGradient id="h" x1="12.837%" x2="75.615%" y1="61.19%" y2="3.591%"><stop offset="12%" stop-color="#F7F7F7"/><stop offset="54%" stop-color="#9B8278"/><stop offset="93%" stop-color="#2D2A42"/></linearGradient><linearGradient id="i" x1="14.185%" x2="82.767%" y1="59.515%" y2="-.774%"><stop offset="8%" stop-color="#F7F7F7"/><stop offset="45%" stop-color="#9B8278"/><stop offset="66%" stop-color="#61545C"/><stop offset="81%" stop-color="#3B3649"/><stop offset="90%" stop-color="#2D2A42"/></linearGradient><linearGradient id="j" x1="45.838%" x2="72.685%" y1=".546%" y2="77.683%"><stop offset="11%" stop-color="#F7F7F7"/><stop offset="43%" stop-color="#9B8278"/><stop offset="61%" stop-color="#736264"/><stop offset="85%" stop-color="#413A4C"/><stop offset="97%" stop-color="#2D2A42"/></linearGradient><linearGradient id="k" x1="45.838%" x2="66.237%" y1="-5.646%" y2="83.976%"><stop offset="21%" stop-color="#F7F7F7"/><stop offset="50%" stop-color="#9B8278"/><stop offset="71%" stop-color="#61535B"/><stop offset="87%" stop-color="#3B3549"/><stop offset="95%" stop-color="#2D2A42"/></linearGradient><linearGradient id="l" x1="7.972%" x2="101.231%" y1="46.879%" y2="63.981%"><stop offset="13%" stop-color="#F7F7F7"/><stop offset="47%" stop-color="#9B8278"/><stop offset="56%" stop-color="#836F6C"/><stop offset="76%" stop-color="#554A55"/><stop offset="91%" stop-color="#383347"/><stop offset="100%" stop-color="#2D2A42"/></linearGradient></defs><g fill="none" fill-rule="nonzero"><circle cx="30" cy="30" r="30" fill="#141E3D"/><path fill="url(#a)" d="m30 30-8.53-14.77L12.94 30z"/><path fill="url(#b)" d="M55.59 44.77 47.06 30l-8.53 14.77z"/><path fill="url(#c)" d="m30 30 8.53-14.77H21.47z"/><path fill="url(#d)" d="m30 59.55 8.53-14.78H21.47z"/><path fill="url(#e)" d="m30 .46-8.53 14.77h17.06z"/><path fill="url(#f)" d="M38.53 15.23 30 30h17.06z"/><path fill="url(#g)" d="M12.94 30 4.41 44.77h17.06z"/><path fill="url(#h)" d="m30 30 8.53 14.77L47.06 30z"/><path fill="url(#i)" d="M4.41 15.23 12.94 30l8.53-14.77z"/><path fill="url(#j)" d="M30 30H12.94l8.53 14.77z"/><path fill="url(#k)" d="M55.59 15.23H38.53L47.06 30z"/><path fill="url(#l)" d="m30 30-8.53 14.77h17.06z"/></g></svg>